<?xml version="1.0" standalone="no"?>
<!DOCTYPE svg PUBLIC "-//W3C//DTD SVG 20010904//EN"
 "http://www.w3.org/TR/2001/REC-SVG-20010904/DTD/svg10.dtd">
<svg version="1.0" xmlns="http://www.w3.org/2000/svg"
 width="317.000000pt" height="317.000000pt" viewBox="0 0 317.000000 317.000000"
 preserveAspectRatio="xMidYMid meet">
<metadata>
Created by potrace 1.14, written by Peter Selinger 2001-2017
</metadata>
<g transform="translate(0.000000,317.000000) scale(0.100000,-0.100000)"
fill="#000000" stroke="none">
<path d="M3007 3074 c4 -10 0 -12 -13 -8 -17 5 -17 4 -2 -5 13 -9 14 -15 5
-35 -7 -13 -16 -22 -22 -19 -5 4 -7 3 -3 -2 4 -4 3 -17 -3 -28 -7 -11 -7 -17
-1 -13 5 3 15 -1 21 -8 8 -10 9 -16 1 -21 -6 -3 -8 -10 -5 -15 3 -5 1 -11 -4
-14 -11 -7 -9 13 3 33 7 11 5 13 -8 8 -12 -5 -20 0 -26 16 -9 19 -10 20 -8 2
2 -11 -2 -27 -7 -35 -8 -13 -7 -13 8 -1 11 9 17 10 17 2 0 -10 -14 -15 -33
-12 -5 1 -11 -8 -14 -20 -4 -16 -8 -17 -14 -7 -12 18 -11 31 0 23 6 -3 15 3
20 14 14 25 14 31 1 31 -5 0 -9 -3 -9 -7 1 -5 1 -15 0 -23 -1 -13 -2 -13 -11
0 -7 11 -10 11 -10 2 0 -7 -5 -10 -10 -7 -6 4 -9 1 -8 -7 2 -8 -5 -12 -17 -11
-11 1 -14 0 -7 -3 17 -8 15 -24 -4 -24 -10 0 -14 -6 -11 -14 3 -8 0 -20 -8
-26 -7 -6 -15 -25 -17 -42 -4 -27 -3 -29 8 -14 7 10 10 25 7 34 -4 14 -3 14 5
3 6 -8 15 -10 23 -6 8 4 4 -2 -9 -14 -12 -12 -20 -26 -17 -31 3 -4 -3 -7 -12
-6 -11 2 -18 12 -18 24 0 11 -3 23 -6 26 -3 4 -5 -9 -4 -29 1 -19 -2 -40 -7
-47 -6 -10 -8 -9 -8 2 -1 12 -3 12 -14 -3 -12 -16 -14 -16 -20 -2 -3 9 -2 13
4 10 6 -3 10 -1 10 5 0 7 7 10 15 6 23 -9 18 0 -12 20 -27 17 -27 17 -13 -1
14 -17 13 -17 -10 -11 -14 4 -20 4 -15 -1 16 -13 15 -45 -2 -67 -11 -15 -14
-16 -10 -4 4 11 0 18 -10 20 -15 3 -15 4 0 20 10 9 13 19 8 22 -9 6 -38 -52
-33 -66 3 -12 -13 -9 -28 5 -12 10 -12 9 0 -6 12 -16 12 -20 -1 -28 -12 -7
-12 -9 1 -10 10 0 8 -3 -5 -9 -13 -6 -15 -9 -5 -9 8 0 22 4 30 9 12 8 12 10 1
10 -11 0 -11 3 -1 15 16 19 26 19 34 -1 6 -14 4 -15 -10 -3 -13 11 -15 11 -12
-3 3 -15 -56 -78 -74 -78 -6 0 -4 -8 3 -17 13 -16 12 -17 -3 -5 -9 7 -18 9
-20 5 -3 -4 -4 -3 -3 2 2 6 -3 16 -10 22 -10 10 -14 9 -19 -3 -3 -8 -11 -12
-16 -9 -6 4 -9 1 -8 -7 2 -7 -3 -12 -10 -10 -6 1 -11 -1 -11 -5 4 -22 -3 -25
-17 -7 -9 10 -6 2 6 -18 12 -21 18 -38 13 -39 -4 0 1 -4 12 -9 19 -8 19 -9 1
-9 -16 -1 -17 -3 -5 -18 13 -17 12 -17 -6 -2 -33 26 -49 34 -40 19 6 -10 4
-12 -8 -7 -11 4 -20 -1 -27 -13 -6 -12 -17 -17 -28 -14 -14 5 -14 4 -3 -4 10
-7 21 -6 36 4 12 8 25 11 28 7 4 -3 7 -1 7 6 0 7 5 9 10 6 6 -3 10 -11 10 -17
0 -6 -3 -8 -7 -5 -3 4 -12 -2 -20 -12 -12 -19 -35 -22 -49 -8 -11 11 -34 8
-34 -3 0 -5 5 -9 11 -7 6 1 14 -4 16 -10 8 -23 -24 -14 -35 10 -10 20 -11 19
-6 -10 2 -19 0 -33 -6 -33 -5 0 -9 3 -9 8 3 17 -2 32 -10 32 -5 0 -8 -8 -7
-17 2 -10 -4 -21 -13 -26 -11 -5 -9 -6 7 -3 12 2 22 0 22 -6 0 -5 6 -6 13 -2
7 5 7 1 -3 -12 -22 -29 -24 -30 -17 -12 4 12 1 16 -13 15 -10 -1 -18 -4 -18
-7 2 -19 -3 -30 -12 -25 -6 4 -9 1 -8 -7 2 -7 -3 -12 -9 -11 -7 2 -13 -2 -13
-7 0 -5 -6 -9 -12 -7 -7 1 -12 -4 -11 -10 2 -7 -2 -13 -9 -13 -6 0 -8 -3 -5
-7 4 -3 16 2 27 12 11 10 20 14 20 10 0 -5 11 6 25 25 14 19 25 30 25 26 0
-13 -42 -68 -47 -62 -3 3 -12 -2 -20 -10 -20 -20 -39 -12 -36 15 2 11 -2 21
-7 21 -6 0 -9 -3 -9 -7 1 -5 1 -15 0 -23 -1 -13 -2 -13 -12 0 -8 12 -9 11 -7
-5 2 -14 -2 -19 -14 -17 -9 1 -19 -2 -23 -8 -3 -6 0 -7 9 -4 9 3 16 1 16 -5 0
-6 -8 -11 -17 -11 -15 0 -16 -2 -3 -10 11 -7 18 -3 28 13 l13 22 -7 -24 c-5
-18 -3 -22 7 -16 8 5 11 4 6 -1 -5 -5 -14 -9 -20 -9 -7 0 -12 -7 -12 -15 0 -8
-4 -16 -10 -17 -10 -2 -29 -43 -26 -57 1 -5 -4 -4 -13 3 -10 8 -16 9 -21 1 -3
-5 -1 -10 6 -10 7 0 9 -3 6 -6 -4 -4 -12 -3 -19 3 -7 5 -19 8 -25 7 -7 -1 -17
-2 -23 -3 -5 0 -7 -8 -4 -16 5 -11 1 -14 -12 -9 -14 4 -13 0 6 -16 l25 -21
-33 16 c-20 10 -30 20 -26 28 4 7 3 8 -1 4 -11 -10 -16 -39 -6 -32 5 2 19 -8
32 -23 18 -20 19 -22 3 -9 -24 20 -50 22 -56 5 -7 -21 8 -63 21 -60 7 1 10 -2
6 -8 -3 -6 -10 -8 -15 -5 -4 3 -10 2 -13 -2 -2 -5 -2 -2 0 5 2 9 -6 12 -28 8
-17 -2 -34 -8 -37 -12 -4 -4 1 -4 11 -1 9 4 17 2 17 -4 0 -7 -11 -9 -26 -6
-14 2 -31 -1 -38 -9 -8 -7 -17 -10 -20 -6 -4 3 -4 -1 0 -11 5 -13 2 -16 -12
-11 -16 5 -16 4 -4 -5 14 -10 7 -16 -15 -11 -5 1 -7 -2 -3 -6 4 -4 2 -14 -5
-22 -8 -11 -8 -14 0 -9 8 5 11 -2 11 -22 -1 -17 -7 -32 -15 -35 -8 -3 -12 -10
-9 -14 3 -5 -1 -9 -8 -9 -7 0 -13 6 -13 13 0 7 5 10 11 7 6 -4 5 1 -3 10 -15
18 -26 23 -16 7 3 -5 2 -10 -4 -10 -6 0 -8 -6 -5 -14 3 -8 0 -17 -7 -22 -8 -5
-10 -3 -4 6 5 8 3 11 -6 8 -8 -3 -13 -10 -12 -16 2 -6 -6 -16 -18 -22 -17 -10
-18 -14 -7 -28 11 -15 11 -15 -3 -5 -12 10 -18 10 -29 0 -7 -6 -10 -7 -7 -1 4
6 0 20 -9 30 -14 18 -14 18 -4 -4 11 -22 10 -23 -12 -17 -17 5 -15 1 10 -14
17 -11 32 -23 32 -26 0 -4 -5 -3 -11 1 -7 4 -10 1 -7 -7 3 -8 12 -12 19 -11 8
2 10 0 6 -4 -11 -11 -38 -14 -31 -3 3 5 0 9 -7 9 -8 0 -9 4 0 13 8 10 7 14 -4
14 -8 0 -12 -4 -9 -8 2 -4 -5 -14 -17 -23 -17 -12 -21 -21 -16 -48 3 -18 3
-27 0 -20 -2 6 -8 10 -12 7 -5 -2 -7 7 -5 20 1 14 -2 23 -7 19 -5 -3 -6 -10
-3 -16 4 -6 -2 -8 -17 -3 -17 4 -20 4 -10 -4 15 -10 25 -45 11 -36 -5 3 -17
-6 -28 -20 -11 -14 -23 -25 -27 -25 -4 0 -2 6 4 13 6 8 7 18 3 22 -4 5 0 4 8
0 13 -8 13 -7 0 11 -22 29 -24 30 -17 12 4 -11 0 -21 -11 -27 -11 -7 -12 -11
-4 -11 7 0 11 -3 9 -7 -9 -15 13 -54 24 -47 8 4 9 3 5 -5 -6 -8 -12 -9 -20 -2
-7 6 -16 8 -20 4 -4 -4 -4 1 0 12 7 17 6 18 -8 5 -15 -14 -14 -16 8 -28 27
-14 32 -25 7 -15 -11 4 -14 3 -9 -5 5 -8 1 -10 -10 -5 -10 4 -15 2 -11 -3 3
-6 1 -16 -5 -24 -8 -12 -9 -11 -4 4 5 14 2 17 -10 12 -9 -4 -23 -1 -30 5 -12
9 -12 15 -2 28 11 14 11 14 -4 3 -13 -10 -22 -11 -38 -2 -11 6 -18 15 -15 20
3 5 0 12 -6 16 -8 5 -9 3 -4 -6 5 -8 3 -11 -6 -8 -8 3 -15 10 -15 16 -1 7 -2
19 -3 27 0 8 -6 15 -11 15 -7 0 -7 -6 -1 -19 6 -10 8 -21 4 -24 -3 -3 1 -13
10 -21 8 -8 17 -13 20 -10 3 3 4 -2 2 -13 -2 -10 -4 -21 -4 -25 -1 -5 -6 -8
-12 -8 -9 0 -9 4 0 13 8 11 6 18 -9 32 -11 10 -20 23 -19 29 3 26 -2 37 -13
31 -7 -4 -2 3 11 14 26 24 16 28 -15 7 -22 -16 -23 -14 -25 37 0 15 -3 16 -14
7 -8 -6 -12 -17 -9 -25 3 -7 1 -16 -4 -19 -10 -6 -8 36 2 52 3 5 -1 17 -8 28
-13 17 -13 16 -11 -9 5 -41 -10 -41 -40 -1 -21 27 -25 38 -16 47 9 9 11 7 6
-8 -5 -16 -5 -17 3 -5 7 9 7 19 2 26 -6 6 -7 13 -4 17 3 3 -4 10 -15 17 -12 6
-18 16 -15 22 4 7 3 8 -4 4 -7 -4 -12 -2 -12 4 0 6 -5 8 -11 5 -6 -4 3 -17 22
-31 42 -31 31 -31 -14 -1 -33 23 -34 24 -15 39 17 14 17 16 3 22 -9 3 -13 2
-10 -4 3 -5 -5 -14 -17 -21 -21 -11 -22 -11 -9 5 8 9 11 19 7 23 -3 3 -6 2 -6
-4 0 -22 -31 -21 -54 2 -18 18 -26 21 -36 12 -7 -7 -5 0 5 16 20 32 23 33 21
10 0 -10 5 -17 12 -15 8 1 11 -1 9 -5 -3 -5 1 -13 8 -20 10 -10 14 -9 19 3 3
9 1 12 -4 9 -9 -6 -15 9 -11 29 1 5 -5 4 -13 -4 -21 -17 -20 -2 1 24 15 17 15
18 2 8 -14 -10 -18 -10 -23 4 -3 9 -3 21 1 26 3 7 1 8 -6 4 -7 -5 -9 -16 -5
-28 4 -14 2 -18 -5 -14 -15 9 -14 39 1 54 7 7 8 12 2 12 -6 0 -15 -9 -20 -19
-8 -18 -10 -18 -24 -3 -13 14 -12 15 2 9 13 -4 16 -1 13 15 -3 12 -10 26 -16
32 -8 8 -8 5 0 -11 10 -19 9 -23 -4 -23 -8 0 -15 -5 -15 -12 0 -6 -3 -8 -6 -5
-4 4 -1 13 6 22 8 9 8 15 2 15 -6 0 -14 -5 -17 -10 -3 -5 -12 -10 -18 -10 -8
0 -7 3 2 9 21 13 6 41 -18 34 -12 -3 -18 -10 -14 -16 3 -6 -5 -2 -19 9 -15 10
-22 21 -17 22 5 2 6 9 3 14 -4 7 -2 8 5 4 6 -4 8 -12 5 -18 -5 -7 -2 -8 6 -3
9 5 11 4 6 -3 -5 -8 -1 -10 9 -6 14 6 13 8 -5 21 -11 8 -18 18 -15 23 3 4 -2
13 -10 20 -15 13 -9 44 8 33 6 -4 7 -1 3 6 -5 7 -11 10 -14 7 -3 -3 -11 -1
-18 4 -8 8 -17 6 -28 -5 -9 -9 -16 -12 -16 -7 0 5 7 15 15 22 18 15 20 33 3
27 -7 -2 -12 -10 -10 -16 1 -6 -1 -11 -5 -12 -5 0 -19 -2 -33 -5 -18 -3 -21
-2 -10 5 8 5 18 7 22 5 16 -10 7 6 -16 29 -22 22 -28 23 -49 12 -19 -10 -24
-10 -24 1 0 7 4 11 9 8 4 -3 8 0 8 5 0 6 -7 11 -15 11 -9 0 -12 6 -9 15 4 8
10 15 16 15 5 0 6 -5 2 -12 -4 -7 -3 -8 5 -4 6 4 9 12 6 17 -9 13 -32 11 -38
-3 -4 -10 -6 -10 -6 0 -1 7 -5 11 -9 8 -5 -3 -9 1 -9 9 0 15 26 29 35 20 3 -3
0 -5 -6 -5 -7 0 -12 -5 -12 -11 0 -8 4 -9 13 0 8 6 16 10 18 8 3 -1 -4 6 -14
16 -11 9 -24 17 -31 17 -6 0 -4 -5 4 -11 13 -9 13 -10 0 -6 -9 2 -14 14 -12
28 2 19 0 21 -8 9 -6 -10 -10 -11 -10 -2 0 6 -5 12 -10 12 -6 0 -9 -5 -8 -11
2 -6 -3 -14 -9 -16 -7 -3 -13 0 -13 7 0 6 -5 8 -10 5 -6 -3 -10 -1 -10 4 0 6
3 11 8 12 24 2 45 8 50 15 4 4 -1 4 -11 1 -12 -4 -17 -1 -18 11 0 14 -2 14 -9
-3 -5 -11 -9 -16 -9 -11 -1 5 -8 3 -16 -4 -10 -8 -15 -9 -15 -2 0 6 8 16 17
21 10 6 14 11 8 11 -5 1 -17 3 -26 5 -12 2 -15 -3 -12 -15 6 -21 -12 -36 -23
-19 -5 8 -3 9 5 4 9 -5 12 -2 9 11 -2 12 -11 18 -23 16 -18 -3 -18 -2 3 13 12
9 20 21 17 26 -4 5 -1 9 5 9 7 0 10 -7 6 -15 -3 -8 -2 -15 3 -15 5 0 11 9 14
20 3 10 2 19 -2 18 -19 -2 -31 3 -26 12 3 6 3 10 -2 11 -4 0 -16 2 -25 4 -10
2 -18 -1 -18 -7 0 -6 6 -8 14 -5 16 6 28 -14 18 -30 -4 -5 -16 -13 -27 -16
-16 -6 -15 -3 5 13 23 18 24 20 5 21 -11 1 -23 1 -27 0 -4 0 -4 7 -1 16 4 10
2 14 -5 9 -7 -4 -10 1 -7 14 2 13 -1 20 -11 20 -8 0 -13 -4 -10 -8 2 -4 -6 -8
-19 -8 -13 0 -23 5 -22 11 1 5 -4 9 -10 7 -7 -1 -13 2 -13 8 0 14 11 12 31 -6
10 -9 19 -11 23 -5 4 5 -3 12 -14 16 -15 5 -19 12 -15 26 5 15 2 19 -19 17
-14 -1 -26 -6 -26 -10 0 -4 -5 -8 -12 -8 -9 0 -9 3 0 12 7 7 12 20 12 31 0 10
4 16 8 13 5 -3 9 1 9 9 0 8 -4 12 -9 9 -4 -3 -8 0 -8 6 0 6 -5 8 -11 4 -8 -4
-7 -9 2 -15 10 -6 7 -8 -8 -6 -16 1 -19 4 -12 14 7 8 7 18 -1 30 -10 16 -11
16 -6 1 3 -10 1 -20 -5 -23 -5 -4 -9 -3 -8 2 3 18 -2 33 -11 33 -5 0 -7 -8 -4
-17 5 -15 4 -16 -5 -3 -11 17 -5 25 24 34 11 3 4 3 -15 1 -19 -3 -41 -1 -49 4
-18 12 -43 2 -34 -13 3 -6 2 -8 -2 -3 -5 4 -10 18 -12 30 -2 12 0 17 4 11 5
-6 15 -11 23 -11 8 0 24 -4 35 -8 16 -5 17 -4 5 4 -9 5 -22 11 -30 13 -25 5
-30 21 -12 36 10 8 5 7 -11 -2 -28 -17 -47 -14 -47 7 0 7 4 6 10 -3 11 -18 21
-10 23 19 1 11 5 21 9 21 4 0 8 5 8 11 0 6 -5 7 -12 2 -7 -4 -21 -9 -32 -10
-16 -3 -17 -1 -6 12 7 8 16 13 19 10 4 -2 8 2 8 10 0 10 -8 8 -30 -7 -17 -12
-27 -17 -24 -11 4 7 2 15 -4 19 -13 8 -30 -15 -22 -31 4 -5 2 -6 -2 -2 -13 11
-15 37 -4 37 6 0 7 5 4 10 -4 6 -12 7 -18 3 -20 -12 -46 -13 -52 -3 -4 7 3 9
19 6 23 -4 25 -3 16 15 -6 11 -8 25 -4 31 4 7 3 8 -5 4 -7 -5 -9 -17 -5 -29 5
-18 4 -20 -7 -9 -7 6 -16 12 -21 12 -4 0 -8 -605 -8 -1345 l0 -1345 1585 0
1585 0 0 1501 0 1500 -84 -2 c-67 -1 -83 -5 -79 -15z m19 -57 c-2 -17 -9 -33
-15 -35 -6 -2 -9 -8 -6 -13 4 -5 -1 -6 -9 -3 -20 8 -20 7 3 46 11 17 17 36 14
41 -3 6 -1 7 5 3 6 -4 10 -21 8 -39z m-139 -132 c0 -8 -3 -12 -7 -10 -4 2 -13
-7 -20 -20 -7 -14 -18 -25 -23 -25 -5 0 -4 6 2 13 6 8 7 18 3 22 -4 5 -2 5 5
1 7 -3 14 2 18 14 7 23 22 27 22 5z m-2722 -195 c3 -5 1 -10 -4 -10 -6 0 -11
5 -11 10 0 6 2 10 4 10 3 0 8 -4 11 -10z m2495 -94 c0 -2 -7 -7 -16 -10 -8 -3
-12 -2 -9 4 6 10 25 14 25 6z m-104 -35 c0 -11 -5 -17 -13 -14 -9 4 -11 0 -7
-11 3 -9 1 -16 -6 -16 -6 0 -8 -5 -4 -12 5 -9 2 -8 -9 1 -17 13 -16 16 9 43
15 15 28 28 29 28 0 0 1 -8 1 -19z m-2186 -96 c0 -2 -10 -9 -22 -15 -22 -11
-22 -10 -4 4 21 17 26 19 26 11z m1973 -180 c-3 -9 -8 -14 -10 -11 -3 3 -2 9
2 15 9 16 15 13 8 -4z m-102 -76 c10 -6 7 -8 -8 -6 -12 0 -19 5 -17 9 3 4 0 8
-6 8 -6 0 -8 5 -4 11 5 8 9 8 14 -1 4 -7 14 -16 21 -21z m-1634 -1 c-3 -8 -6
-5 -6 6 -1 11 2 17 5 13 3 -3 4 -12 1 -19z m41 -83 c-3 -3 -9 2 -12 12 -6 14
-5 15 5 6 7 -7 10 -15 7 -18z m1561 12 c-2 -1 -13 -9 -24 -17 -19 -14 -19 -14
-6 3 7 9 18 17 24 17 6 0 8 -1 6 -3z m-1469 -42 c9 -10 9 -15 1 -15 -6 0 -11
5 -11 11 0 5 -4 7 -10 4 -5 -3 -10 -1 -10 4 0 16 16 13 30 -4z m1343 -41 c-7
-19 -10 -18 -16 5 -3 13 -1 18 9 14 7 -2 10 -11 7 -19z m-1256 -24 c-1 -10 -3
-17 -6 -15 -2 3 -9 -2 -15 -11 -10 -13 -12 -13 -12 5 0 11 5 17 10 14 5 -4 7
1 3 9 -3 9 -3 19 0 22 10 10 22 -4 20 -24z m1193 -42 c9 -20 9 -21 -2 -7 -7 9
-19 14 -27 11 -8 -3 -11 0 -7 7 11 17 24 13 36 -11z m-1187 -6 c-21 -22 -26
-21 -17 2 3 9 12 16 20 16 11 0 10 -4 -3 -18z m1172 -12 c3 -5 1 -10 -4 -10
-6 0 -11 5 -11 10 0 6 2 10 4 10 3 0 8 -4 11 -10z m-1095 -40 c0 -5 -5 -10
-11 -10 -5 0 -7 5 -4 10 3 6 8 10 11 10 2 0 4 -4 4 -10z m985 -19 c-3 -5 -1
-12 5 -16 5 -3 10 -1 10 6 0 7 3 10 6 6 3 -3 3 -11 -1 -17 -5 -8 -11 -7 -23 2
-13 11 -15 10 -9 -5 4 -10 3 -16 -2 -12 -5 3 -12 1 -16 -5 -3 -5 -1 -10 5 -10
6 0 8 -5 4 -11 -5 -8 -9 -8 -14 1 -5 8 -10 9 -14 2 -3 -6 -2 -13 4 -17 5 -3
10 -11 10 -18 0 -6 -6 -2 -14 8 -12 17 -10 23 17 57 28 35 46 51 32 29z m-914
-104 c-10 -9 -11 -8 -5 6 3 10 9 15 12 12 3 -3 0 -11 -7 -18z m84 -77 c3 -5 1
-10 -4 -10 -6 0 -11 5 -11 10 0 6 2 10 4 10 3 0 8 -4 11 -10z m735 4 c0 -8
-19 -13 -24 -6 -3 5 1 9 9 9 8 0 15 -2 15 -3z m-696 -22 c3 -5 -1 -9 -9 -9 -8
0 -12 4 -9 9 3 4 7 8 9 8 2 0 6 -4 9 -8z m660 0 c2 -4 -5 -9 -17 -9 -17 -2
-19 0 -7 7 18 12 18 12 24 2z m-606 -35 c17 6 15 -4 -3 -11 -9 -3 -19 3 -25
17 -10 19 -9 20 2 6 7 -9 19 -14 26 -12z m489 -52 c0 -8 -7 -15 -15 -15 -12 0
-12 3 -2 15 7 8 13 15 15 15 1 0 2 -7 2 -15z m-473 -13 c3 -5 -1 -9 -9 -9 -8
0 -12 4 -9 9 3 4 7 8 9 8 2 0 6 -4 9 -8z m406 -76 c0 -2 -8 -10 -17 -17 -16
-13 -17 -12 -4 4 13 16 21 21 21 13z m-166 -111 c2 -6 0 -18 -5 -26 -6 -9 -9
-10 -9 -2 0 6 -8 10 -18 8 -14 -2 -18 3 -17 25 0 24 2 26 22 17 12 -5 24 -15
27 -22z m96 -9 c0 -3 -4 -8 -10 -11 -5 -3 -10 -1 -10 4 0 6 5 11 10 11 6 0 10
-2 10 -4z"/>
<path d="M3001 2997 c-13 -21 -12 -21 5 -5 10 10 16 20 13 22 -3 3 -11 -5 -18
-17z"/>
<path d="M1375 1430 c-3 -5 -5 -10 -3 -11 33 -8 38 -7 27 7 -14 17 -16 17 -24
4z"/>
<path d="M2796 2843 c-6 -14 -5 -15 5 -6 7 7 10 15 7 18 -3 3 -9 -2 -12 -12z"/>
<path d="M2756 2797 c3 -10 9 -15 12 -12 3 3 0 11 -7 18 -10 9 -11 8 -5 -6z"/>
<path d="M60 2768 c0 -6 3 -8 6 -5 4 4 19 -2 34 -13 26 -18 29 -19 41 -3 8 9
9 14 2 10 -6 -4 -14 -1 -16 5 -4 10 -6 10 -6 1 -1 -7 -8 -10 -16 -7 -8 4 -13
9 -11 13 3 4 -4 8 -15 8 -10 1 -19 -3 -19 -9z"/>
<path d="M2705 2720 c3 -5 8 -10 11 -10 2 0 4 5 4 10 0 6 -5 10 -11 10 -5 0
-7 -4 -4 -10z"/>
<path d="M220 2650 c-9 -6 -10 -10 -3 -10 6 0 15 5 18 10 8 12 4 12 -15 0z"/>
<path d="M2586 2628 c3 -5 10 -6 15 -3 13 9 11 12 -6 12 -8 0 -12 -4 -9 -9z"/>
<path d="M2571 2599 c7 -15 14 -19 17 -11 2 6 7 10 12 7 4 -3 13 2 20 10 9 10
9 15 1 15 -6 0 -11 -4 -11 -9 0 -11 -19 -9 -38 3 -12 7 -12 4 -1 -15z"/>
<path d="M315 2589 c-4 -6 -5 -12 -2 -15 2 -3 7 2 10 11 7 17 1 20 -8 4z"/>
<path d="M335 2570 c-3 -5 -1 -10 4 -10 6 0 11 5 11 10 0 6 -2 10 -4 10 -3 0
-8 -4 -11 -10z"/>
<path d="M2474 2506 c1 -9 7 -21 13 -27 9 -9 11 -7 9 5 -1 9 -7 21 -13 27 -9
9 -11 7 -9 -5z"/>
<path d="M340 2489 c0 -5 5 -7 10 -4 6 3 10 8 10 11 0 2 -4 4 -10 4 -5 0 -10
-5 -10 -11z"/>
<path d="M394 2469 c-3 -6 -2 -15 4 -21 6 -6 12 -6 17 3 6 8 4 10 -5 4 -10 -6
-12 -4 -7 8 7 19 2 23 -9 6z"/>
<path d="M428 2433 c7 -3 16 -2 19 1 4 3 -2 6 -13 5 -11 0 -14 -3 -6 -6z"/>
<path d="M453 2420 c-14 -22 -4 -33 17 -19 10 5 11 9 3 9 -7 0 -10 7 -7 15 8
21 1 19 -13 -5z"/>
<path d="M2434 2426 c-19 -15 -19 -15 0 -12 11 2 22 8 24 14 5 16 0 15 -24 -2z"/>
<path d="M650 2246 c7 -7 13 -7 20 0 6 6 3 10 -10 10 -13 0 -16 -4 -10 -10z"/>
<path d="M2143 2153 c-7 -2 -13 -12 -13 -21 -1 -15 -2 -15 -14 1 -12 16 -14
16 -20 2 -4 -10 -2 -14 5 -9 7 4 10 1 7 -7 -3 -8 -16 -13 -29 -12 -22 2 -22 2
-4 -6 12 -5 25 -5 33 1 6 6 12 7 12 2 1 -5 8 4 16 19 8 15 19 25 24 22 6 -4
10 -1 10 4 0 12 -7 13 -27 4z"/>
<path d="M708 2143 c7 -3 16 -2 19 1 4 3 -2 6 -13 5 -11 0 -14 -3 -6 -6z"/>
<path d="M750 2116 c0 -2 7 -7 16 -10 8 -3 12 -2 9 4 -6 10 -25 14 -25 6z"/>
<path d="M870 1989 c0 -5 5 -7 10 -4 6 3 10 8 10 11 0 2 -4 4 -10 4 -5 0 -10
-5 -10 -11z"/>
<path d="M935 1949 c-4 -6 -5 -12 -2 -15 2 -3 7 2 10 11 7 17 1 20 -8 4z"/>
<path d="M1795 1810 c-3 -5 -1 -10 5 -10 6 0 8 -6 4 -12 -4 -7 -3 -9 1 -5 12
10 15 37 5 37 -5 0 -12 -4 -15 -10z"/>
<path d="M1719 1761 c-13 -22 -27 -37 -30 -35 -3 2 -6 -4 -6 -13 0 -13 4 -12
17 5 10 12 21 18 25 14 5 -4 5 -1 1 6 -5 8 -1 21 10 33 9 10 15 21 12 24 -2 2
-15 -13 -29 -34z"/>
<path d="M1197 1648 c-15 -12 -15 -15 3 -38 19 -24 19 -24 13 -2 -3 12 -10 22
-16 22 -6 0 -2 7 9 15 10 8 16 15 13 15 -3 0 -13 -6 -22 -12z"/>
<path d="M1296 1584 c-3 -8 -10 -12 -16 -9 -6 4 -7 -1 -3 -11 6 -16 7 -15 20
2 13 17 17 34 9 34 -2 0 -7 -7 -10 -16z"/>
<path d="M1531 1595 c0 -5 4 -18 8 -28 7 -18 8 -18 21 -1 8 10 10 15 3 11 -7
-4 -16 0 -22 10 -6 10 -10 14 -10 8z"/>
<path d="M1470 1509 c0 -5 5 -7 10 -4 6 3 10 8 10 11 0 2 -4 4 -10 4 -5 0 -10
-5 -10 -11z"/>
<path d="M1460 1450 c0 -5 7 -7 15 -4 8 4 15 8 15 10 0 2 -7 4 -15 4 -8 0 -15
-4 -15 -10z"/>
</g>
</svg>
